/* XPM */
static const char * mouse_icon_xpm[] = {
"32 32 40 1",
" 	c #A5A5A5",
".	c #000000",
"+	c #98280B",
"@	c #9A290B",
"#	c #99280C",
"$	c #98270A",
"%	c #150200",
"&	c #96270A",
"*	c #892309",
"=	c #8B250D",
"-	c #8F250A",
";	c #90250A",
">	c #741D07",
",	c #0C0C0C",
"'	c #96280B",
")	c #862208",
"!	c #030303",
"~	c #070707",
"{	c #0F0F0F",
"]	c #1E1E1E",
"^	c #0E0E0E",
"/	c #992A0E",
"(	c #7E1F07",
"_	c #1C1C1C",
":	c #972B15",
"<	c #B68136",
"[	c #B88235",
"}	c #902C17",
"|	c #3A3A3A",
"1	c #936729",
"2	c #AC7931",
"3	c #AE7750",
"4	c #B97F51",
"5	c #B98043",
"6	c #373737",
"7	c #292929",
"8	c #2E2E2E",
"9	c #B87B5F",
"0	c #151515",
"a	c #1F002A",
"                                ",
"                          ..... ",
"                          .+++. ",
"                         .++@@. ",
"                        .@+#+@. ",
"                       .+@+$%.. ",
"                      .+@@&*.   ",
"                     .##+&+.    ",
"                    .@+$$=.     ",
"                   .@@$$*.      ",
"                  .=@@+-.       ",
"                 .;+@+>.        ",
"                .-++#;.         ",
"              .,&#++&.          ",
"             ..'@+@;.           ",
"            ..)'++'.            ",
"           ..''+&+.             ",
"          !.'@+@;..             ",
"         ~{++@#@;.              ",
"       ]^!+#@@/(!               ",
"      ..~_:+#/{.                ",
"     .]<[[.}#..                 ",
"    ..[[[[[...                  ",
"   |.1[[[[[2.                   ",
"   .34[[[[[2]                   ",
"   .[[[[[5[.6                   ",
"  7[[[[[[[[.                    ",
"  .[[[[[[[.~                    ",
" 8[[[[[[[90                     ",
" .[[[[[[a.                      ",
" .......|                       ",
"                                "};
